<svg role="img" viewBox="0 0 501 107" xmlns="http://www.w3.org/2000/svg">
  <title>ASUS</title>
  <path fill="#000000" d="M153.109375 0.945312 C140.378906 1.738281 134.855469 7.859375 130.710938 12.207031 C126.269531 16.847656 123.800781 26.621094 123.800781 26.621094 L123.800781 1.144531 L74.167969 1.144531 C70.417969 1.144531 66.863281 2.722656 64.199219 6.476562 C61.4375 10.132812 50.089844 28.894531 50.089844 28.894531 L246.363281 28.894531 L246.363281 0.945312 Z M400.203125 0.945312 C387.574219 1.738281 381.949219 7.859375 377.804688 12.207031 C373.363281 16.847656 370.894531 26.621094 370.894531 26.621094 L370.894531 28.894531 L499.96875 28.894531 L499.96875 0.945312 Z M251.195312 1.046875 L251.195312 28.894531 L279.125 28.894531 L279.125 1.046875 Z M342.773438 1.046875 L342.773438 28.894531 L370.597656 28.894531 L370.597656 1.046875 Z M48.902344 30.574219 L0.945312 106.023438 L33.707031 106.023438 L79.890625 33.929688 Z M251.492188 30.96875 L251.492188 71.59375 C251.449219 70.761719 251.394531 69.582031 251.394531 69.582031 C250.703125 65.433594 242.808594 47.066406 225.835938 45.484375 C215.671875 44.496094 125.183594 37.289062 125.183594 37.289062 C126.960938 46.375 131.007812 51.015625 133.769531 53.582031 C140.085938 59.605469 150.050781 61.386719 150.050781 61.386719 C152.417969 61.582031 219.816406 67.210938 219.816406 67.210938 C221.988281 67.308594 226.035156 67.902344 225.9375 73.234375 C225.9375 73.925781 225.34375 78.570312 220.210938 78.570312 L122.617188 78.570312 L122.617188 37.089844 L95.480469 35.117188 C95.382812 35.117188 95.382812 106.023438 95.382812 106.023438 L225.835938 106.023438 C248.53125 101.480469 250.902344 80.742188 250.902344 80.742188 C251.300781 78.476562 251.4375 76.480469 251.492188 74.710938 L251.492188 80.445312 C255.933594 104.144531 277.347656 106.023438 277.347656 106.023438 C277.347656 106.023438 279.519531 106.121094 279.914062 106.21875 L343.5625 106.21875 C343.5625 106.21875 370.796875 104.046875 370.796875 77.777344 L370.597656 38.96875 L343.167969 37.289062 L343.167969 69.582031 C343.167969 69.582031 343.066406 78.863281 334.089844 78.863281 L287.117188 78.863281 C287.117188 78.863281 279.125 78.171875 279.125 69.679688 L279.125 32.945312 Z M372.574219 38.96875 C375.238281 48.347656 378.890625 51.214844 381.652344 53.78125 C387.96875 59.902344 397.339844 61.285156 397.339844 61.285156 C399.710938 61.484375 467.800781 67.210938 467.800781 67.210938 C469.96875 67.308594 474.410156 67.507812 474.410156 72.839844 C474.410156 74.421875 473.621094 76.101562 472.632812 76.988281 C472.632812 76.988281 470.265625 78.273438 467.996094 78.273438 L371.09375 78.273438 L370.796875 106.21875 L470.660156 106.21875 C495.726562 104.738281 499.277344 80.9375 499.277344 80.9375 C500.164062 74.71875 499.476562 69.582031 499.476562 69.582031 C498.785156 63.953125 490.792969 46.964844 473.71875 45.289062 C463.65625 44.300781 372.574219 38.96875 372.574219 38.96875 Z"/>
  <path fill="#FF0000" d="M153.109375 0.945312 C140.378906 1.738281 134.855469 7.859375 130.710938 12.207031 C126.269531 16.847656 123.800781 26.621094 123.800781 26.621094 L123.800781 1.144531 L74.167969 1.144531 C70.417969 1.144531 66.863281 2.722656 64.199219 6.476562 C61.4375 10.132812 50.089844 28.894531 50.089844 28.894531 L246.363281 28.894531 L246.363281 0.945312 Z M400.203125 0.945312 C387.574219 1.738281 381.949219 7.859375 377.804688 12.207031 C373.363281 16.847656 370.894531 26.621094 370.894531 26.621094 L370.894531 28.894531 L499.96875 28.894531 L499.96875 0.945312 Z M251.195312 1.046875 L251.195312 28.894531 L279.125 28.894531 L279.125 1.046875 Z M342.773438 1.046875 L342.773438 28.894531 L370.597656 28.894531 L370.597656 1.046875 Z"/>
</svg>
